<?xml version="1.0" encoding="UTF-8" standalone="no"?>
<svg
   xmlns:dc="http://purl.org/dc/elements/1.1/"
   xmlns:cc="http://creativecommons.org/ns#"
   xmlns:rdf="http://www.w3.org/1999/02/22-rdf-syntax-ns#"
   xmlns:svg="http://www.w3.org/2000/svg"
   xmlns="http://www.w3.org/2000/svg"
   xmlns:xlink="http://www.w3.org/1999/xlink"
   id="svg48"
   version="1.1"
   viewBox="0 0 451.15839 136.14075"
   height="136.14075"
   width="451.15839">
  <metadata
     id="metadata52">
    <rdf:RDF>
      <cc:Work
         rdf:about="">
        <dc:format>image/svg+xml</dc:format>
        <dc:type
           rdf:resource="http://purl.org/dc/dcmitype/StillImage" />
        <dc:title></dc:title>
      </cc:Work>
    </rdf:RDF>
  </metadata>
  <defs
     id="defs8">
    <path
       d="m 314.56,77.91 c 0,-1.1 0.9,-2 2,-2 h 5.09 a 2,2 0 0 1 2,2 V 78 a 2,2 0 0 1 -2,2 h -5.09 a 2,2 0 0 1 -2,-2 z"
       id="jf7ba" />
    <path
       d="m 305.78,69.94 c 0,-1.1 0.9,-2 2,-2 H 322 a 2,2 0 0 1 2,2 v 0.13 a 2,2 0 0 1 -2,2 h -14.22 a 2,2 0 0 1 -2,-2 z"
       id="jf7bb" />
    <path
       d="m 273,62 c 0,-1.1 0.9,-2 2,-2 h 47 a 2,2 0 1 1 0,4 h -47 a 2,2 0 0 1 -2,-2 z"
       id="jf7bc" />
    <path
       d="m 162.34,77.91 c 0,-1.1 0.9,-2 2,-2 h 14.22 a 2,2 0 0 1 2,2 V 78 a 2,2 0 0 1 -2,2 h -14.22 a 2,2 0 0 1 -2,-2 z"
       id="jf7bd" />
    <path
       d="m 162.34,69.94 c 0,-1.1 0.9,-2 2,-2 h 32.41 a 2,2 0 0 1 2,2 v 0.13 a 2,2 0 0 1 -2,2 h -32.41 a 2,2 0 0 1 -2,-2 z"
       id="jf7be" />
    <path
       d="m 162,62 c 0,-1.1 0.9,-2 2,-2 h 88 a 2,2 0 1 1 0,4 h -88 a 2,2 0 0 1 -2,-2 z"
       id="jf7bf" />
  </defs>
  <path
     id="path36"
     style="font-weight:700;font-size:medium;line-height:100px;font-family:Helvetica, Arial, sans-serif;letter-spacing:-3.61999989;dominant-baseline:text-before-edge;fill:#ffffff;fill-opacity:1"
     d="M 65.784733,66.00366 84.073813,0 H 69.677953 L 59.809093,49.52538 49.125372,0 H 35.725452 L 25.494432,49.43484 15.263412,0 H 0.8675524 L 19.518792,66.00366 h 12.2229 L 42.515952,14.486401 53.561833,66.00366 Z" />
  <path
     id="path38"
     style="font-weight:700;font-size:medium;line-height:100px;font-family:Helvetica, Arial, sans-serif;letter-spacing:-3.61999989;dominant-baseline:text-before-edge;fill:#ffffff;fill-opacity:1"
     d="m 108.73484,16.297201 c -14.939112,0 -24.083652,9.868859 -24.083652,25.894439 0,16.11612 9.14454,25.89444 24.174192,25.89444 14.84856,0 24.17418,-9.86886 24.17418,-25.53228 0,-16.56882 -8.96346,-26.2566 -24.26472,-26.256599 z m 0.0905,10.231019 c 6.97158,0 11.49858,6.24726 11.49858,15.8445 0,9.14454 -4.70808,15.48234 -11.49858,15.48234 -6.88104,0 -11.498592,-6.3378 -11.498592,-15.66342 0,-9.32562 4.617552,-15.66342 11.498592,-15.66342 z" />
  <path
     id="path40"
     style="font-weight:700;font-size:medium;line-height:100px;font-family:Helvetica, Arial, sans-serif;letter-spacing:-3.61999989;dominant-baseline:text-before-edge;fill:#ffffff;fill-opacity:1"
     d="m 138.91597,17.11206 v 48.8916 h 12.6756 V 40.01868 c 0,-7.42428 3.71214,-11.13642 11.13642,-11.13642 1.3581,0 2.2635,0.09054 3.98376,0.36216 V 16.38774 c -0.72432,-0.09054 -1.17702,-0.09054 -1.53918,-0.09054 -5.79456,0 -10.8648,3.80268 -13.581,10.4121 v -9.59724 z" />
  <path
     id="path42"
     style="font-weight:700;font-size:medium;line-height:100px;font-family:Helvetica, Arial, sans-serif;letter-spacing:-3.61999989;dominant-baseline:text-before-edge;fill:#ffffff;fill-opacity:1"
     d="M 182.79977,36.125461 V 0 h -12.6756 v 66.00366 h 12.6756 V 49.978081 l 5.07024,-5.52294 11.67966,21.54852 h 14.84856 l -17.83638,-30.42144 16.65936,-18.47016 h -14.39586 z" />
  <path
     id="path44"
     style="font-weight:700;font-size:medium;line-height:100px;font-family:Helvetica, Arial, sans-serif;letter-spacing:-3.61999989;dominant-baseline:text-before-edge;fill:#ffffff;fill-opacity:1"
     d="m 257.28324,32.866021 c -0.18108,-10.321561 -8.1486,-16.56882 -21.2769,-16.56882 -12.40398,0 -20.09988,6.24726 -20.09988,16.2972 0,3.25944 0.99594,6.06618 2.7162,7.967519 1.72026,1.720261 3.25944,2.53512 7.96752,4.0743 l 15.12018,4.708081 c 3.1689,0.995939 4.25538,1.99188 4.25538,3.98376 0,2.98782 -3.53106,4.79862 -9.41616,4.79862 -3.25944,0 -5.8851,-0.63378 -7.51482,-1.72026 -1.3581,-0.99594 -1.90134,-1.991881 -2.44458,-4.61754 H 214.1862 c 0.36216,10.68372 8.23914,16.2972 23.0877,16.2972 6.7905,0 11.95128,-1.44864 15.57288,-4.34592 3.6216,-2.89728 5.79456,-7.42428 5.79456,-12.2229 0,-6.3378 -3.1689,-10.4121 -9.59724,-12.31344 l -16.02558,-4.61754 c -3.53106,-1.08648 -4.43646,-1.8108 -4.43646,-3.80268 0,-2.7162 2.89728,-4.527 7.33374,-4.527 6.06618,0 9.054,2.17296 9.14454,6.60942 z" />
  <path
     id="path46"
     style="font-weight:700;font-size:medium;line-height:100px;font-family:Helvetica, Arial, sans-serif;letter-spacing:-3.61999989;dominant-baseline:text-before-edge;fill:#ffffff;fill-opacity:1"
     d="m 276.26571,17.11206 h -12.6756 v 68.629321 h 12.6756 v -25.53228 c 3.07836,5.4324 7.42428,7.96752 13.581,7.96752 11.7702,0 20.46204,-11.04588 20.46204,-25.89444 0,-6.88104 -1.99188,-13.76208 -5.25132,-18.28908 -3.25944,-4.61754 -9.32562,-7.6959 -15.21072,-7.6959 -6.15672,0 -10.50264,2.62566 -13.581,8.05806 z m 10.68372,9.77832 c 6.42834,0 10.68372,6.247261 10.68372,15.57288 0,8.87292 -4.43646,15.12018 -10.68372,15.12018 -6.3378,0 -10.68372,-6.15672 -10.68372,-15.30126 0,-9.14454 4.34592,-15.3918 10.68372,-15.3918 z" />
  <path
     id="path48"
     style="font-weight:700;font-size:medium;line-height:100px;font-family:Helvetica, Arial, sans-serif;letter-spacing:-3.61999989;dominant-baseline:text-before-edge;fill:#ffffff;fill-opacity:1"
     d="m 357.5114,64.464481 c -2.2635,-2.08242 -2.89728,-3.440521 -2.89728,-5.97564 v -27.162 c 0,-9.959401 -6.7905,-15.02964 -20.00934,-15.02964 -13.21884,0 -20.09988,5.61348 -20.91474,16.93098 h 12.2229 c 0.63378,-5.07024 2.7162,-6.69996 8.96346,-6.69996 4.88916,0 7.33374,1.62972 7.33374,4.88916 0,1.629719 -0.81486,3.07836 -2.17296,3.80268 -1.72026,0.9054 -1.72026,0.9054 -7.96752,1.901339 l -5.07024,0.9054 c -9.68778,1.62972 -14.39586,6.60942 -14.39586,15.3918 0,4.16484 1.17702,7.60536 3.44052,10.04994 2.80674,2.89728 7.06212,4.61754 11.40804,4.61754 5.4324,0 10.4121,-2.35404 14.84856,-6.97158 0,2.53512 0.27162,3.44052 1.44864,4.88916 h 13.76208 z m -15.30126,-18.108 c 0,7.33374 -3.6216,11.49858 -10.04994,11.49858 -4.25538,0 -6.88104,-2.2635 -6.88104,-5.8851 0,-3.80268 1.99188,-5.61348 7.2432,-6.69996 l 4.34592,-0.81486 c 3.34998,-0.63378 3.89322,-0.81486 5.34186,-1.53918 z" />
  <path
     id="path50"
     style="font-weight:700;font-size:medium;line-height:100px;font-family:Helvetica, Arial, sans-serif;letter-spacing:-3.61999989;dominant-baseline:text-before-edge;fill:#ffffff;fill-opacity:1"
     d="m 404.10855,35.401141 c -0.9054,-11.95128 -8.87292,-19.10394 -21.09582,-19.10394 -14.57694,0 -23.0877,9.59724 -23.0877,26.256599 0,16.116121 8.42022,25.532281 22.90662,25.532281 11.86074,0 20.09988,-7.33374 21.2769,-19.0134 h -12.13236 c -1.62972,6.3378 -4.16484,8.78238 -9.054,8.78238 -6.42834,0 -10.32156,-5.79456 -10.32156,-15.30126 0,-4.61754 0.9054,-8.96346 2.44458,-11.86074 1.44864,-2.7162 4.25538,-4.16484 7.87698,-4.16484 5.16078,0 7.60536,2.44458 9.054,8.87292 z" />
  <path
     id="path52"
     style="font-weight:700;font-size:medium;line-height:100px;font-family:Helvetica, Arial, sans-serif;letter-spacing:-3.61999989;dominant-baseline:text-before-edge;fill:#ffffff;fill-opacity:1"
     d="m 451.06789,45.54162 c 0.0905,-1.08648 0.0905,-1.53918 0.0905,-2.172959 0,-4.889161 -0.72432,-9.41616 -1.90134,-12.85668 -3.25944,-8.87292 -11.13642,-14.21478 -21.00528,-14.21478 -14.0337,0 -22.635,10.14048 -22.635,26.52822 0,15.66342 8.51076,25.26066 22.36338,25.26066 10.95534,0 19.82826,-6.24726 22.635,-15.8445 h -12.49452 c -1.53918,3.89322 -5.07024,6.15672 -9.68778,6.15672 -3.6216,0 -6.51888,-1.53918 -8.32968,-4.25538 -1.17702,-1.8108 -1.62972,-3.98376 -1.8108,-8.6013 z m -32.5944,-8.42022 c 0.81486,-7.42428 3.98376,-11.13642 9.59724,-11.13642 3.1689,0 6.06618,1.53918 7.87698,4.0743 1.17702,1.8108 1.72026,3.712141 1.99188,7.06212 z" />
  <g
     style="fill:#ffffff;fill-opacity:1"
     transform="matrix(2.7716075,0,0,2.9339853,-449.00041,-98.578079)"
     id="g20">
    <use
       xlink:href="#jf7ba"
       id="use18"
       style="fill:#ffffff;fill-opacity:1"
       x="0"
       y="0"
       width="100%"
       height="100%" />
  </g>
  <g
     style="fill:#ffffff;fill-opacity:1"
     transform="matrix(2.7716049,0,0,2.905569,-448.99999,-97.963611)"
     id="g24">
    <use
       xlink:href="#jf7bb"
       id="use22"
       style="fill:#ffffff;fill-opacity:1"
       x="0"
       y="0"
       width="100%"
       height="100%" />
  </g>
  <g
     style="fill:#ffffff;fill-opacity:1"
     transform="matrix(2.7716078,0,0,2.87614,-449.00079,-98.303653)"
     id="g28">
    <use
       xlink:href="#jf7bc"
       id="use26"
       style="fill:#ffffff;fill-opacity:1"
       x="0"
       y="0"
       width="100%"
       height="100%" />
  </g>
  <g
     style="fill:#ffffff;fill-opacity:1"
     transform="matrix(2.7716075,0,0,2.9339853,-449.00041,-98.578079)"
     id="g32">
    <use
       xlink:href="#jf7bd"
       id="use30"
       style="fill:#ffffff;fill-opacity:1"
       x="0"
       y="0"
       width="100%"
       height="100%" />
  </g>
  <g
     style="fill:#ffffff;fill-opacity:1"
     transform="matrix(2.7716049,0,0,2.905569,-448.99999,-97.963611)"
     id="g36">
    <use
       xlink:href="#jf7be"
       id="use34"
       style="fill:#ffffff;fill-opacity:1"
       x="0"
       y="0"
       width="100%"
       height="100%" />
  </g>
  <g
     style="fill:#ffffff;fill-opacity:1"
     transform="matrix(2.7716049,0,0,2.87614,-448.99999,-97.808213)"
     id="g40">
    <use
       xlink:href="#jf7bf"
       id="use38"
       style="fill:#ffffff;fill-opacity:1"
       x="0"
       y="0"
       width="100%"
       height="100%" />
  </g>
</svg>
